<?xml version="1.0" encoding="utf-8"?>
<!-- Generator: Adobe Illustrator 26.3.1, SVG Export Plug-In . SVG Version: 6.00 Build 0)  -->
<svg version="1.1" id="Layer_1" xmlns="http://www.w3.org/2000/svg" xmlns:xlink="http://www.w3.org/1999/xlink" x="0px" y="0px"
	 viewBox="0 0 595.28 596.68" style="enable-background:new 0 0 595.28 596.68;" xml:space="preserve">
<style type="text/css">
	.st0{fill:#FFFFFF;}
	.st1{fill:#15294F;}
	.st2{fill:#7A93CB;}
	.st3{font-family:'MyriadPro-Bold';}
	.st4{font-size:108.7897px;}
	.st5{fill:#8D8F94;}
	.st6{font-family:'MyriadPro-Regular';}
	.st7{font-size:39.1643px;}
</style>
<rect x="0.65" y="1.4" class="st0" width="595.28" height="873.6"/>
<rect x="-0.14" y="1.4" class="st0" width="595.28" height="873.6"/>
<g>
	<g>
		<g>
			<path class="st1" d="M467.61,268.08c-0.39-12.26-0.31-24.55-0.16-36.82c0.06-4.72-0.78-7.93-6.3-9.64
				c-2.18-0.68-4.27-4.72-4.56-7.41c-1.37-12.49-7.53-20.78-20.4-24.14c-15.36-4.01-30.72-8-45.96-12.39
				c-2.41-0.69-5.57-3.14-6.02-5.25c-1.46-6.78-6.33-7.68-11.91-7.6c-13.64,0.19-27.28,0.81-40.92,0.88
				c-11.03,0.06-22.05,0.09-33.08,0.11c-11.03-0.03-22.05-0.06-33.08-0.11c-13.64-0.07-27.28-0.69-40.92-0.88
				c-5.58-0.08-10.45,0.82-11.91,7.6c-0.45,2.11-3.61,4.55-6.02,5.25c-15.24,4.38-30.61,8.38-45.96,12.39
				c-12.87,3.36-19.04,11.64-20.4,24.14c-0.29,2.7-2.38,6.74-4.56,7.41c-5.52,1.71-6.36,4.93-6.3,9.64
				c0.15,12.27,0.23,24.55-0.16,36.82c-0.12,3.72,0.37,6.05,4.2,7.56c4.56,1.8,6.32,5.23,7.36,10.13
				c2.61,12.19,9.99,21.44,22.77,25.11c18.91,5.44,37.95,10.47,57.06,15.19c14.38,3.55,22.72-0.28,29.76-12.84
				c10.66-19.03,21.13-38.16,31.83-57.17c1.46-2.59,3.54-4.97,5.73-7.06c3.42-3.24,7.07-5.02,10.59-5.34
				c3.52,0.32,7.17,2.1,10.59,5.34c2.2,2.08,4.27,4.46,5.73,7.06c10.7,19.01,21.17,38.14,31.83,57.17
				c7.04,12.56,15.38,16.39,29.76,12.84c19.11-4.72,38.16-9.75,57.06-15.19c12.78-3.68,20.16-12.92,22.77-25.11
				c1.05-4.9,2.81-8.33,7.36-10.13C467.23,274.12,467.73,271.8,467.61,268.08z M277.74,223.68c-11.98,22.83-24.83,45.26-36.39,68.29
				c-7.84,15.62-18.93,16.75-31.13,13.72c-12.16-3.02-24.07-7.05-35.96-11.01c-12.76-4.25-18.9-13.14-18.84-26.13
				c0.05-10.82,0.01-21.64,0.01-34.03c0.06-0.14,0.2-0.8,0.2-1.47c-0.05-20.98,6.74-28.04,28.19-29.65
				c8.15-0.61,16.25-1.85,24.4-2.47c19.41-1.48,38.84-2.9,58.27-4.08c10.02-0.61,14.73,5.08,14.71,14.06
				C281.2,215.18,279.77,219.81,277.74,223.68z M422.31,294.68c-11.89,3.96-23.8,7.99-35.96,11.01c-12.2,3.03-23.28,1.9-31.13-13.72
				c-11.56-23.03-24.4-45.45-36.39-68.29c-2.03-3.87-3.46-8.5-3.47-12.78c-0.02-8.98,4.69-14.67,14.71-14.06
				c19.44,1.18,38.86,2.6,58.27,4.08c8.15,0.62,16.25,1.86,24.4,2.47c21.45,1.61,28.24,8.67,28.19,29.65c0,0.67,0.14,1.33,0.2,1.47
				c0,12.4-0.04,23.22,0.01,34.03C441.22,281.54,435.07,290.43,422.31,294.68z"/>
			<path class="st1" d="M297.16,252.72c-13.14,0-37.81,57.92-35.86,60.83c0.97,1.44,18.7-5.48,36.57-5.55
				c18.16-0.07,36.45,6.69,37.43,5.55C337.24,311.29,310.3,252.72,297.16,252.72z"/>
			<g>
				<path class="st1" d="M376.69,343.6l-35.03-9.99c-10.09-12.49-25.94-20.64-43.7-20.64s-33.59,8.14-43.68,20.64l-34.72,9.99
					c-6.3,1.46-11.48,4.09-11.48,10.28l-1.3,35.99c0,6.19,4.82,14.12,11.25,14.12h37.46c10.12,0,25.36,19.13,42.41,19.13
					s32.29-19.13,42.41-19.13h37.46c6.43,0,12.05-7.93,12.05-14.12l-1.3-34.95C388.51,348.73,383.05,345.53,376.69,343.6z
					 M297.5,407.67c-24.23,0-43.87-18.9-43.87-42.21c0-23.31,19.64-42.21,43.87-42.21c24.23,0,43.87,18.9,43.87,42.21
					C341.37,388.77,321.73,407.67,297.5,407.67z"/>
				<ellipse class="st1" cx="297.5" cy="366.59" rx="38.02" ry="36.58"/>
			</g>
		</g>
	</g>
	<g>
		<path class="st1" d="M79.34,234.14c0-38.95,26.16-74.09,68.12-98.97c3.86-9.4,8.44-18.37,13.67-26.83
			c-61.46,27.8-101.64,73.78-101.64,125.79c0,58.15,50.2,108.75,124.22,134.85c4.92,1.74,9.96,16.42,15.08,17.93v-33.3
			C127.89,331.02,79.34,287.21,79.34,234.14z"/>
		<path class="st1" d="M435.45,108.35c5.23,8.46,9.81,17.43,13.67,26.83c41.96,24.87,68.12,60.01,68.12,98.97
			c0,53.06-48.55,96.88-119.46,119.48v33.3c6.04-1.78,11.94-16.78,17.7-18.87c72.59-26.36,121.61-76.45,121.61-133.91
			C537.09,182.12,496.91,136.15,435.45,108.35z"/>
	</g>
	<g>
		<path class="st1" d="M149.55,181.76c16.56-4.32,33.14-8.63,49.58-13.36c2.6-0.75,6.01-3.39,6.5-5.66
			c1.58-7.31,6.83-8.28,12.85-8.2c14.71,0.2,29.42,0.87,44.14,0.94c11.89,0.06,23.79,0.09,35.68,0.12
			c11.89-0.03,23.79-0.06,35.68-0.12c14.71-0.07,29.42-0.74,44.14-0.94c6.02-0.08,11.27,0.88,12.85,8.2
			c0.49,2.27,3.89,4.91,6.5,5.66c16.44,4.73,33.01,9.04,49.58,13.36c4.04,1.05,7.45,2.57,10.31,4.51
			c-10.67-85.15-77.81-150.77-159.06-150.77S149.9,101.11,139.23,186.27C142.1,184.33,145.51,182.81,149.55,181.76z"/>
	</g>
	<g>
		<path class="st2" d="M277.74,223.5c-11.98,22.83-24.83,45.26-36.39,68.29c-7.84,15.62-18.93,16.75-31.13,13.72
			c-12.16-3.02-24.07-7.05-35.96-11.01c-12.76-4.25-18.9-13.14-18.84-26.13c0.05-10.82,0.01-21.64,0.01-34.03
			c0.06-0.14,0.2-0.8,0.2-1.47c-0.05-20.98,6.74-28.04,28.19-29.65c8.15-0.61,16.25-1.85,24.4-2.47c19.41-1.48,38.84-2.9,58.27-4.08
			c10.02-0.61,14.73,5.08,14.71,14.06C281.2,215,279.77,219.63,277.74,223.5z M422.31,294.5c-11.89,3.96-23.8,7.99-35.96,11.01
			c-12.2,3.03-23.28,1.9-31.13-13.72c-11.56-23.03-24.4-45.45-36.39-68.29c-2.03-3.87-3.46-8.5-3.47-12.78
			c-0.02-8.98,4.69-14.67,14.71-14.06c19.44,1.18,38.86,2.6,58.27,4.08c8.15,0.62,16.25,1.86,24.4,2.47
			c21.45,1.61,28.24,8.67,28.19,29.65c0,0.67,0.14,1.33,0.2,1.47c0,12.4-0.04,23.22,0.01,34.03
			C441.22,281.36,435.07,290.25,422.31,294.5z"/>
	</g>
</g>
<text transform="matrix(1.0392 0 0 1 17.2292 503.5919)"><tspan x="0" y="0" class="st2 st3 st4">SCUBA</tspan><tspan x="312.66" y="0" class="st1 st3 st4">FUN</tspan></text>
<text transform="matrix(1.0392 0 0 1 65.5846 552.8049)" class="st5 st6 st7">DEN MOBILE DYKKERSKOLE</text>
<g>
	<g>
		<path class="st1" d="M141.52,738.98c-0.13-4.27-0.1-8.54-0.05-12.81c0.02-1.64-0.26-2.76-2.11-3.35
			c-0.73-0.24-1.43-1.64-1.53-2.58c-0.46-4.35-2.52-7.23-6.83-8.39c-5.14-1.39-10.28-2.78-15.38-4.31
			c-0.81-0.24-1.86-1.09-2.02-1.83c-0.49-2.36-2.12-2.67-3.99-2.64c-4.57,0.07-9.13,0.28-13.69,0.3c-3.69,0.02-7.38,0.03-11.07,0.04
			c-3.69-0.01-7.38-0.02-11.07-0.04c-4.57-0.02-9.13-0.24-13.69-0.3c-1.87-0.03-3.5,0.28-3.99,2.64c-0.15,0.73-1.21,1.58-2.02,1.83
			c-5.1,1.53-10.24,2.91-15.38,4.31c-4.31,1.17-6.37,4.05-6.83,8.39c-0.1,0.94-0.8,2.34-1.53,2.58c-1.85,0.59-2.13,1.71-2.11,3.35
			c0.05,4.27,0.08,8.54-0.05,12.81c-0.04,1.29,0.12,2.1,1.41,2.63c1.52,0.62,2.11,1.82,2.46,3.52c0.87,4.24,3.34,7.46,7.62,8.74
			c6.33,1.89,12.7,3.64,19.1,5.28c4.81,1.23,7.6-0.1,9.96-4.47c3.57-6.62,7.07-13.27,10.65-19.88c0.49-0.9,1.18-1.73,1.92-2.45
			c1.15-1.13,2.37-1.75,3.55-1.86c1.18,0.11,2.4,0.73,3.55,1.86c0.74,0.72,1.43,1.55,1.92,2.45c3.58,6.61,7.09,13.26,10.65,19.88
			c2.35,4.37,5.15,5.7,9.96,4.47c6.4-1.64,12.77-3.39,19.1-5.28c4.28-1.28,6.75-4.49,7.62-8.74c0.35-1.7,0.94-2.9,2.46-3.52
			C141.39,741.09,141.56,740.28,141.52,738.98z M77.97,723.54c-4.01,7.94-8.31,15.74-12.18,23.75c-2.62,5.43-6.33,5.83-10.42,4.77
			c-4.07-1.05-8.06-2.45-12.04-3.83c-4.27-1.48-6.33-4.57-6.3-9.09c0.02-3.76,0-7.53,0-11.84c0.02-0.05,0.07-0.28,0.07-0.51
			c-0.02-7.3,2.26-9.75,9.44-10.31c2.73-0.21,5.44-0.64,8.17-0.86c6.5-0.52,13-1.01,19.5-1.42c3.35-0.21,4.93,1.77,4.92,4.89
			C79.13,720.59,78.65,722.2,77.97,723.54z M126.36,748.24c-3.98,1.38-7.96,2.78-12.04,3.83c-4.08,1.05-7.79,0.66-10.42-4.77
			c-3.87-8.01-8.17-15.81-12.18-23.75c-0.68-1.35-1.16-2.96-1.16-4.45c-0.01-3.12,1.57-5.1,4.92-4.89c6.51,0.41,13.01,0.9,19.5,1.42
			c2.73,0.22,5.44,0.65,8.17,0.86c7.18,0.56,9.45,3.02,9.44,10.31c0,0.23,0.05,0.46,0.07,0.51c0,4.31-0.01,8.07,0,11.84
			C132.68,743.67,130.63,746.76,126.36,748.24z"/>
		<path class="st1" d="M84.47,733.64c-4.4,0-12.65,20.14-12,21.16c0.32,0.5,6.26-1.91,12.24-1.93c6.08-0.02,12.2,2.33,12.53,1.93
			C97.88,754.01,88.87,733.64,84.47,733.64z"/>
		<g>
			<path class="st1" d="M111.09,765.25l-11.73-3.48c-3.38-4.34-8.68-7.18-14.63-7.18c-5.95,0-11.24,2.83-14.62,7.18l-11.62,3.48
				c-2.11,0.51-3.84,1.42-3.84,3.58l-0.44,12.52c0,2.15,1.61,4.91,3.77,4.91h12.54c3.39,0,8.49,6.66,14.19,6.66
				c5.71,0,10.81-6.66,14.19-6.66h12.54c2.15,0,4.03-2.76,4.03-4.91l-0.43-12.16C115.04,767.04,113.22,765.92,111.09,765.25z
				 M84.59,787.54c-8.11,0-14.68-6.57-14.68-14.68c0-8.11,6.57-14.68,14.68-14.68c8.11,0,14.68,6.57,14.68,14.68
				C99.27,780.96,92.69,787.54,84.59,787.54z"/>
			<circle class="st1" cx="84.59" cy="773.25" r="12.72"/>
		</g>
	</g>
</g>
<g>
	<path class="st1" d="M11.57,727.18c0-13.55,8.76-25.77,22.8-34.42c1.29-3.27,2.83-6.39,4.57-9.33
		c-20.57,9.67-34.02,25.66-34.02,43.75c0,20.22,16.8,37.82,41.58,46.9c1.65,0.6,3.33,5.71,5.05,6.24v-11.58
		C27.82,760.88,11.57,745.64,11.57,727.18z"/>
	<path class="st1" d="M130.75,683.43c1.75,2.94,3.28,6.06,4.57,9.33c14.04,8.65,22.8,20.87,22.8,34.42
		c0,18.46-16.25,33.7-39.98,41.56v11.58c2.02-0.62,4-5.84,5.92-6.56c24.29-9.17,40.7-26.59,40.7-46.58
		C164.77,709.09,151.32,693.1,130.75,683.43z"/>
</g>
<g>
	<path class="st1" d="M35.07,708.96c5.54-1.5,11.09-3,16.59-4.65c0.87-0.26,2.01-1.18,2.17-1.97c0.53-2.54,2.28-2.88,4.3-2.85
		c4.92,0.07,9.85,0.3,14.77,0.33c3.98,0.02,7.96,0.03,11.94,0.04c3.98-0.01,7.96-0.02,11.94-0.04c4.92-0.03,9.85-0.26,14.77-0.33
		c2.02-0.03,3.77,0.31,4.3,2.85c0.16,0.79,1.3,1.71,2.17,1.97c5.5,1.65,11.05,3.14,16.59,4.65c1.35,0.37,2.49,0.89,3.45,1.57
		c-3.57-29.62-26.04-52.44-53.23-52.44s-49.66,22.82-53.23,52.44C32.57,709.86,33.72,709.33,35.07,708.96z"/>
</g>
<g>
	<path class="st2" d="M77.97,723.48c-4.01,7.94-8.31,15.74-12.18,23.75c-2.62,5.43-6.33,5.83-10.42,4.77
		c-4.07-1.05-8.06-2.45-12.04-3.83c-4.27-1.48-6.33-4.57-6.3-9.09c0.02-3.76,0-7.53,0-11.84c0.02-0.05,0.07-0.28,0.07-0.51
		c-0.02-7.3,2.26-9.75,9.44-10.31c2.73-0.21,5.44-0.64,8.17-0.86c6.5-0.52,13-1.01,19.5-1.42c3.35-0.21,4.93,1.77,4.92,4.89
		C79.13,720.52,78.65,722.13,77.97,723.48z M126.36,748.17c-3.98,1.38-7.96,2.78-12.04,3.83c-4.08,1.05-7.79,0.66-10.42-4.77
		c-3.87-8.01-8.17-15.81-12.18-23.75c-0.68-1.35-1.16-2.96-1.16-4.45c-0.01-3.12,1.57-5.1,4.92-4.89c6.51,0.41,13.01,0.9,19.5,1.42
		c2.73,0.22,5.44,0.65,8.17,0.86c7.18,0.56,9.45,3.02,9.44,10.31c0,0.23,0.05,0.46,0.07,0.51c0,4.31-0.01,8.07,0,11.84
		C132.68,743.6,130.63,746.7,126.36,748.17z"/>
</g>
<text transform="matrix(1 0 0 1 175.4802 745.4141)"><tspan x="0" y="0" class="st2 st3" style="font-size:81.9438px;">SCUBA</tspan><tspan x="235.5" y="0" class="st1 st3" style="font-size:81.9438px;">FUN</tspan></text>
<text transform="matrix(1.0392 0 0 1 175.8037 774.9316)" class="st5 st6" style="font-size:25.5572px;">DEN MOBILE DYKKERSKOLE</text>
</svg>
