<?xml version="1.0" encoding="UTF-8"?><svg id="Layer_2" xmlns="http://www.w3.org/2000/svg" viewBox="0 0 159.84 134.82"><defs><style>.cls-1{fill:#fff;}</style></defs><g id="Layer_1-2"><g id="Layer_2-2"><g><path class="cls-1" d="M136.59,80.9c-.13-4.27-.1-8.54-.05-12.81,.02-1.64-.26-2.76-2.11-3.35-.73-.24-1.43-1.64-1.53-2.58-.46-4.35-2.52-7.23-6.83-8.39-5.14-1.39-10.28-2.78-15.38-4.31-.81-.24-1.86-1.09-2.02-1.83-.49-2.36-2.12-2.67-3.99-2.64-4.57,.07-9.13,.28-13.69,.3-3.69,.02-7.38,.03-11.07,.04-3.69,0-7.38-.02-11.07-.04-4.57-.02-9.13-.24-13.69-.3-1.87-.03-3.5,.28-3.99,2.64-.15,.73-1.21,1.58-2.02,1.83-5.1,1.53-10.24,2.91-15.38,4.31-4.31,1.17-6.37,4.05-6.83,8.39-.1,.94-.8,2.34-1.53,2.58-1.85,.59-2.13,1.71-2.11,3.35,.05,4.27,.08,8.54-.05,12.81-.04,1.29,.12,2.1,1.41,2.63,1.52,.62,2.11,1.82,2.46,3.52,.87,4.24,3.34,7.46,7.62,8.74,6.33,1.89,12.7,3.64,19.1,5.28,4.81,1.23,7.6-.1,9.96-4.47,3.57-6.62,7.07-13.27,10.65-19.88,.49-.9,1.18-1.73,1.92-2.45,1.15-1.13,2.37-1.75,3.55-1.86,1.18,.11,2.4,.73,3.55,1.86,.74,.72,1.43,1.55,1.92,2.45,3.58,6.61,7.09,13.26,10.65,19.88,2.35,4.37,5.15,5.7,9.96,4.47,6.4-1.64,12.77-3.39,19.1-5.28,4.28-1.28,6.75-4.49,7.62-8.74,.35-1.7,.94-2.9,2.46-3.52,1.28-.53,1.45-1.33,1.41-2.63Zm-63.54-15.44c-4.01,7.94-8.31,15.74-12.18,23.75-2.62,5.43-6.33,5.83-10.42,4.77-4.07-1.05-8.06-2.45-12.04-3.83-4.27-1.48-6.33-4.57-6.3-9.09,.02-3.76,0-7.53,0-11.84,.02-.05,.07-.28,.07-.51-.02-7.3,2.26-9.75,9.44-10.31,2.73-.21,5.44-.64,8.17-.86,6.5-.52,13-1.01,19.5-1.42,3.35-.21,4.93,1.77,4.92,4.89,0,1.49-.48,3.1-1.16,4.45Zm48.39,24.69c-3.98,1.38-7.96,2.78-12.04,3.83-4.08,1.05-7.79,.66-10.42-4.77-3.87-8.01-8.17-15.81-12.18-23.75-.68-1.35-1.16-2.96-1.16-4.45,0-3.12,1.57-5.1,4.92-4.89,6.51,.41,13.01,.9,19.5,1.42,2.73,.22,5.44,.65,8.17,.86,7.18,.56,9.45,3.02,9.44,10.31,0,.23,.05,.46,.07,.51,0,4.31-.01,8.07,0,11.84,.02,4.52-2.03,7.61-6.3,9.09Z"/><path class="cls-1" d="M79.54,75.56c-4.4,0-12.65,20.14-12,21.16,.32,.5,6.26-1.91,12.24-1.93,6.08-.02,12.2,2.33,12.53,1.93,.65-.79-8.36-21.16-12.76-21.16Z"/><g><path class="cls-1" d="M106.16,107.17l-11.73-3.48c-3.38-4.34-8.68-7.18-14.63-7.18s-11.24,2.83-14.62,7.18l-11.62,3.48c-2.11,.51-3.84,1.42-3.84,3.58l-.44,12.52c0,2.15,1.61,4.91,3.77,4.91h12.54c3.39,0,8.49,6.66,14.19,6.66s10.81-6.66,14.19-6.66h12.54c2.15,0,4.03-2.76,4.03-4.91l-.43-12.16c0-2.15-1.83-3.27-3.96-3.94Zm-26.5,22.28c-8.11,0-14.68-6.57-14.68-14.68s6.57-14.68,14.68-14.68,14.68,6.57,14.68,14.68-6.57,14.68-14.68,14.68Z"/><circle class="cls-1" cx="79.66" cy="115.16" r="12.72"/></g></g><g><path class="cls-1" d="M6.64,69.09c0-13.55,8.76-25.77,22.8-34.42,1.29-3.27,2.83-6.39,4.57-9.33C13.45,35.01,0,51,0,69.09c0,20.22,16.8,37.82,41.58,46.9,1.65,.6,3.33,5.71,5.05,6.24v-11.58c-23.73-7.86-39.98-23.1-39.98-41.56Z"/><path class="cls-1" d="M125.83,25.34c1.75,2.94,3.28,6.06,4.57,9.33,14.04,8.65,22.8,20.87,22.8,34.42,0,18.46-16.25,33.7-39.98,41.56v11.58c2.02-.62,4-5.84,5.92-6.56,24.29-9.17,40.7-26.59,40.7-46.58,0-18.09-13.45-34.08-34.02-43.75Z"/></g><path class="cls-1" d="M30.14,50.88c5.54-1.5,11.09-3,16.59-4.65,.87-.26,2.01-1.18,2.17-1.97,.53-2.54,2.28-2.88,4.3-2.85,4.92,.07,9.85,.3,14.77,.33,3.98,.02,7.96,.03,11.94,.04,3.98,0,7.96-.02,11.94-.04,4.92-.03,9.85-.26,14.77-.33,2.02-.03,3.77,.31,4.3,2.85,.16,.79,1.3,1.71,2.17,1.97,5.5,1.65,11.05,3.14,16.59,4.65,1.35,.37,2.49,.89,3.45,1.57C129.58,22.82,107.11,0,79.92,0S30.26,22.82,26.69,52.44c.96-.67,2.1-1.2,3.45-1.57Z"/></g></g></svg>